<?xml version="1.0" encoding="UTF-8" standalone="no"?>
<!DOCTYPE svg PUBLIC "-//W3C//DTD SVG 1.1//EN"
 "http://www.w3.org/Graphics/SVG/1.1/DTD/svg11.dtd">
<!-- Generated by graphviz version 7.0.4 (20221203.1631)
 -->
<!-- Title: tree Pages: 1 -->
<svg width="164pt" height="260pt"
 viewBox="0.00 0.00 163.89 260.00" xmlns="http://www.w3.org/2000/svg" xmlns:xlink="http://www.w3.org/1999/xlink">
<g id="graph0" class="graph" transform="scale(1 1) rotate(0) translate(4 256)">
<title>tree</title>
<polygon fill="white" stroke="none" points="-4,4 -4,-256 159.89,-256 159.89,4 -4,4"/>
<!-- CEO -->
<g id="node1" class="node">
<title>CEO</title>
<ellipse fill="none" stroke="black" cx="77.45" cy="-234" rx="28.7" ry="18"/>
<text text-anchor="middle" x="77.45" y="-230.3" font-family="Times,serif" font-size="14.00">CEO</text>
</g>
<!-- VP_1 -->
<g id="node2" class="node">
<title>VP_1</title>
<ellipse fill="none" stroke="black" cx="38.45" cy="-162" rx="30.59" ry="18"/>
<text text-anchor="middle" x="38.45" y="-158.3" font-family="Times,serif" font-size="14.00">VP_1</text>
</g>
<!-- CEO&#45;&gt;VP_1 -->
<g id="edge1" class="edge">
<title>CEO&#45;&gt;VP_1</title>
<path fill="none" stroke="black" d="M68.4,-216.76C63.89,-208.67 58.32,-198.66 53.21,-189.49"/>
<polygon fill="black" stroke="black" points="56.38,-187.99 48.45,-180.96 50.26,-191.39 56.38,-187.99"/>
</g>
<!-- VP_2 -->
<g id="node4" class="node">
<title>VP_2</title>
<ellipse fill="none" stroke="black" cx="119.45" cy="-162" rx="30.59" ry="18"/>
<text text-anchor="middle" x="119.45" y="-158.3" font-family="Times,serif" font-size="14.00">VP_2</text>
</g>
<!-- CEO&#45;&gt;VP_2 -->
<g id="edge2" class="edge">
<title>CEO&#45;&gt;VP_2</title>
<path fill="none" stroke="black" d="M87.19,-216.76C92.17,-208.46 98.35,-198.15 103.97,-188.79"/>
<polygon fill="black" stroke="black" points="106.84,-190.82 108.98,-180.45 100.83,-187.22 106.84,-190.82"/>
</g>
<!-- GM_1 -->
<g id="node3" class="node">
<title>GM_1</title>
<ellipse fill="none" stroke="black" cx="34.45" cy="-90" rx="34.39" ry="18"/>
<text text-anchor="middle" x="34.45" y="-86.3" font-family="Times,serif" font-size="14.00">GM_1</text>
</g>
<!-- VP_1&#45;&gt;GM_1 -->
<g id="edge3" class="edge">
<title>VP_1&#45;&gt;GM_1</title>
<path fill="none" stroke="black" d="M37.46,-143.7C37.04,-136.41 36.55,-127.73 36.08,-119.54"/>
<polygon fill="black" stroke="black" points="39.58,-119.4 35.51,-109.62 32.59,-119.8 39.58,-119.4"/>
</g>
<!-- GM_2 -->
<g id="node5" class="node">
<title>GM_2</title>
<ellipse fill="none" stroke="black" cx="121.45" cy="-90" rx="34.39" ry="18"/>
<text text-anchor="middle" x="121.45" y="-86.3" font-family="Times,serif" font-size="14.00">GM_2</text>
</g>
<!-- VP_2&#45;&gt;GM_2 -->
<g id="edge4" class="edge">
<title>VP_2&#45;&gt;GM_2</title>
<path fill="none" stroke="black" d="M119.94,-143.7C120.15,-136.41 120.4,-127.73 120.63,-119.54"/>
<polygon fill="black" stroke="black" points="124.13,-119.71 120.92,-109.62 117.13,-119.51 124.13,-119.71"/>
</g>
<!-- M_1 -->
<g id="node6" class="node">
<title>M_1</title>
<ellipse fill="none" stroke="black" cx="121.45" cy="-18" rx="27.9" ry="18"/>
<text text-anchor="middle" x="121.45" y="-14.3" font-family="Times,serif" font-size="14.00">M_1</text>
</g>
<!-- GM_2&#45;&gt;M_1 -->
<g id="edge5" class="edge">
<title>GM_2&#45;&gt;M_1</title>
<path fill="none" stroke="black" d="M121.45,-71.7C121.45,-64.41 121.45,-55.73 121.45,-47.54"/>
<polygon fill="black" stroke="black" points="124.95,-47.62 121.45,-37.62 117.95,-47.62 124.95,-47.62"/>
</g>
</g>
</svg>
